# xmcd
# 
# Track frame offsets:
#     150
#     12321
#     22982
#     37619
#     50609
#     63423
#     78374
#     90862
#     103903
#     116063
#     128887
#     142409
#     155191
#     168896
#     182010
#     194871
#     208759
#     218492
# 
# Disc length: 3097
# 
# Revision: 0
# Processed by: cddbd v1.5.2PL0 Copyright (c) Steve Scherf et al.
# Submitted via: fre:ac v1.0.27
# 
DISCID=fd0c1712
DTITLE=Willie Dixon - The Chess Box [CD1]
DYEAR=1989
DGENRE=Blues
TTITLE0=My Babe
TTITLE1=Violent Love
TTITLE2=Third Degree
TTITLE3=Seventh Son
TTITLE4=Crazy for My Baby
TTITLE5=Pain in My Heart
TTITLE6=(I'm Your) Hoochie Coochie Man
TTITLE7=Evil
TTITLE8=Mellow Down Easy
TTITLE9=When the Lights Go Out
TTITLE10=Young Fashioned Ways
TTITLE11=Pretty Thing
TTITLE12=I'm Ready
TTITLE13=Do Me Right
TTITLE14=I Just Want to Make Love to You
TTITLE15=Tollin' Bells
TTITLE16=29 Ways
TTITLE17=Walking the Blues
EXTD=YEAR: 1988 ID3G:   0 
EXTT0=
EXTT1=
EXTT2=
EXTT3=
EXTT4=
EXTT5=
EXTT6=
EXTT7=
EXTT8=
EXTT9=
EXTT10=
EXTT11=
EXTT12=
EXTT13=
EXTT14=
EXTT15=
EXTT16=
EXTT17=
PLAYORDER=
